<svg xmlns="http://www.w3.org/2000/svg" viewBox="0 0 32.74 38.79"><defs><style>.cls-1{fill:#46b9bd;}.cls-2{fill:#fff;}</style></defs><g id="Layer_2" data-name="Layer 2"><g id="Слой_1" data-name="Слой 1"><path class="cls-1" d="M32.68,15A16.11,16.11,0,0,0,27.8,4.67,15.61,15.61,0,0,0,18.74.17,19.44,19.44,0,0,0,16.37,0,19.44,19.44,0,0,0,14,.17a15.59,15.59,0,0,0-9.06,4.5A16.11,16.11,0,0,0,.06,15,16.41,16.41,0,0,0,2.2,24.41a32.94,32.94,0,0,0,4.92,6.7c2.15,2.33,4.56,4.39,6.91,6.52a4.41,4.41,0,0,0,1.86,1.12,1.7,1.7,0,0,0,.48,0,1.7,1.7,0,0,0,.48,0,4.41,4.41,0,0,0,1.86-1.12c2.35-2.13,4.76-4.19,6.91-6.52a32.94,32.94,0,0,0,4.92-6.7A16.41,16.41,0,0,0,32.68,15Z"/><path class="cls-2" d="M25.43,12.84l.47.32a.36.36,0,0,0,.2.06h.07a.39.39,0,0,0,.23-.15l.8-1.19a.35.35,0,0,0-.09-.49L16.67,4.29a.38.38,0,0,0-.41,0L5.82,11.38a.35.35,0,0,0-.09.49l.8,1.19a.39.39,0,0,0,.23.15A.36.36,0,0,0,7,13.16l.47-.32v3.58a.9.9,0,0,0-.47.49,17.12,17.12,0,0,0-1.32,4.32A2.36,2.36,0,0,0,7.5,23.7v1.47H6.06a.35.35,0,0,0-.35.35h0a.38.38,0,0,0,.37.37H27a.25.25,0,0,0,.26-.26v-.15a.31.31,0,0,0-.31-.31H25.43Zm-18.5-.48-.41-.59L16.46,5l10,6.75-.41.59L16.67,6A.33.33,0,0,0,16.46,6a.31.31,0,0,0-.2.07Zm-.5,8.87A15.84,15.84,0,0,1,7.7,17.18a.17.17,0,0,1,.16-.12.17.17,0,0,1,.17.12A16.28,16.28,0,0,1,9.3,21.23c0,1-.61,1.79-1.44,1.79S6.43,22.27,6.43,21.23ZM8.22,23.7A2.36,2.36,0,0,0,10,21.23a17.12,17.12,0,0,0-1.32-4.32.87.87,0,0,0-.47-.49V12.35l8.24-5.59,8.25,5.59v7l-.06-.09a.37.37,0,0,0-.6,0l-.71,1.07a.36.36,0,0,0-.06.2v.72h-.72v-.72a.36.36,0,0,0-.06-.2l-.72-1.07a.37.37,0,0,0-.59,0l-.72,1.07a.36.36,0,0,0-.06.2v.72h-.72v-.72a.36.36,0,0,0-.06-.2l-.72-1.07a.37.37,0,0,0-.59,0l-.72,1.07a.36.36,0,0,0-.06.2v4.66H15.39V18.36A.36.36,0,0,0,15,18H11.09a.36.36,0,0,0-.36.36v6.81H8.22ZM19,25.17h-.71V20.62l.36-.54.35.54ZM19.69,22h.72v.71h-.72Zm0,1.43h.72v1.79h-.72Zm2.15,1.79h-.72V20.62l.36-.54.36.54ZM22.56,22h.72v.71h-.72Zm0,1.43h.72v1.79h-.72Zm-7.89,1.79H11.45V18.72h3.22Zm9.32,0V20.62l.36-.54.36.54v4.55Z"/><path class="cls-2" d="M15.39,15.49h2.15A1.43,1.43,0,0,0,19,14.06V11.91a1.44,1.44,0,0,0-1.43-1.44H15.39A1.44,1.44,0,0,0,14,11.91v2.15A1.43,1.43,0,0,0,15.39,15.49Zm-.72-1.43v-.72h1.44v1.44h-.72A.72.72,0,0,1,14.67,14.06Zm2.87.72h-.72V13.34h1.44v.72A.72.72,0,0,1,17.54,14.78Zm.72-2.87v.72H16.82V11.19h.72A.72.72,0,0,1,18.26,11.91Zm-2.87-.72h.72v1.44H14.67v-.72A.72.72,0,0,1,15.39,11.19Z"/></g></g></svg>