<svg xmlns="http://www.w3.org/2000/svg" viewBox="0 0 21.75 25.76"><defs><style>.cls-1{fill:#0d0f1e;}.cls-2{fill:#e2f5f5;}</style></defs><g id="Layer_2" data-name="Layer 2"><g id="Слой_1" data-name="Слой 1"><path class="cls-1" d="M21.7,10A10.72,10.72,0,0,0,18.47,3.1a10.39,10.39,0,0,0-6-3A14.31,14.31,0,0,0,10.87,0,14.13,14.13,0,0,0,9.3.11a10.39,10.39,0,0,0-6,3A10.73,10.73,0,0,0,0,10a10.93,10.93,0,0,0,1.42,6.25,21.62,21.62,0,0,0,3.27,4.45c1.43,1.55,3,2.92,4.59,4.33a3,3,0,0,0,1.23.75,1.42,1.42,0,0,0,.32,0,1.42,1.42,0,0,0,.32,0A2.85,2.85,0,0,0,12.42,25c1.57-1.41,3.17-2.78,4.6-4.33a21.58,21.58,0,0,0,3.26-4.45A10.85,10.85,0,0,0,21.7,10Z"/><path class="cls-2" d="M18.09,15.2h-1.2V15a.72.72,0,0,0,.72-.72V14a.72.72,0,0,0-.72-.72H13.52v-5h3.37A.24.24,0,0,0,17.13,8a3.37,3.37,0,0,0-1.32-2.57,4.41,4.41,0,0,0-2.77-1h-.48a4.44,4.44,0,0,0-2.78,1A3.36,3.36,0,0,0,8.47,8a.24.24,0,0,0,.24.24h3.37v5H8.78L5.86,10.33a.69.69,0,0,0-.51-.22h0a.75.75,0,0,0-.51.21l-.17.17a.72.72,0,0,0,0,1L8,14.82v.38H7.86l-3.05-3a.25.25,0,0,0-.34,0l-.68.68a.23.23,0,0,0,0,.34h0l2,2H3.65a.24.24,0,0,0-.24.24v.72a.24.24,0,0,0,.24.24H3.9v.72a.23.23,0,0,0,.24.24h.69a.24.24,0,0,0,.24-.23l0-.73H16.65v.72a.23.23,0,0,0,.24.24h.72a.24.24,0,0,0,.24-.24V16.4h.24a.24.24,0,0,0,.24-.24v-.72A.24.24,0,0,0,18.09,15.2ZM15.51,5.78a3,3,0,0,1,1.12,2H14.72A5,5,0,0,0,13.86,5,4.22,4.22,0,0,1,15.51,5.78ZM9,7.74a3,3,0,0,1,1.13-2A4.25,4.25,0,0,1,11.73,5a5.1,5.1,0,0,0-.85,2.79Zm2.4,0a5.32,5.32,0,0,1,.47-2c.26-.52.59-.85.87-.85h.2c.27,0,.6.33.86.85a5.15,5.15,0,0,1,.48,2ZM13,8.22v5h-.48v-5ZM5,11.17a.25.25,0,0,1,0-.34l.17-.17a.28.28,0,0,1,.17-.07h0a.24.24,0,0,1,.17.07l3,3a.23.23,0,0,0,.17.07h8.21a.24.24,0,0,1,.24.24v.25a.24.24,0,0,1-.24.24H8.32ZM16.41,15v.24H8.47V15ZM4.59,16.88H4.38V16.4h.23Zm12.78,0h-.24V16.4h.24Zm.48-1H3.9v-.24H6.4a.24.24,0,0,0,.24-.24.21.21,0,0,0-.08-.17L4.3,13l.34-.34,3,2.93a.28.28,0,0,0,.17.07H17.85Z"/></g></g></svg>