<svg xmlns="http://www.w3.org/2000/svg" viewBox="0 0 21.75 25.76"><defs><style>.cls-1{fill:#0d0f1e;}.cls-2{fill:#e2f5f5;}</style></defs><g id="Layer_2" data-name="Layer 2"><g id="Слой_1" data-name="Слой 1"><path class="cls-1" d="M21.7,10A10.72,10.72,0,0,0,18.47,3.1a10.39,10.39,0,0,0-6-3A14.31,14.31,0,0,0,10.87,0,14.13,14.13,0,0,0,9.3.11a10.39,10.39,0,0,0-6,3A10.73,10.73,0,0,0,0,10a10.93,10.93,0,0,0,1.42,6.25,21.62,21.62,0,0,0,3.27,4.45c1.43,1.55,3,2.92,4.59,4.33a3,3,0,0,0,1.23.75,1.42,1.42,0,0,0,.32,0,1.42,1.42,0,0,0,.32,0A2.85,2.85,0,0,0,12.42,25c1.57-1.41,3.17-2.78,4.6-4.33a21.58,21.58,0,0,0,3.26-4.45A10.85,10.85,0,0,0,21.7,10Z"/><path class="cls-2" d="M17.8,13.62a.24.24,0,0,0,.24-.24v-.46a.82.82,0,0,0-.79-.84h-.38V11.6a.62.62,0,0,0-.62-.62H14.34a.61.61,0,0,0-.61.62v1.26a25.56,25.56,0,0,0-5.53,0V11.6A.62.62,0,0,0,7.58,11H7.43a25.35,25.35,0,0,0,3.88-2.91l.75,1a.61.61,0,0,0,.86.14l1.54-1.12h0a.61.61,0,0,0,.14-.86l-.29-.4.31-.22a.83.83,0,0,0,.15-1.15L13.48,3.72a.81.81,0,0,0-1.13-.22L12,3.73l-.29-.4a.62.62,0,0,0-.86-.13L9.35,4.32a.61.61,0,0,0-.14.86l.75,1A25.66,25.66,0,0,0,5.48,9.46l-.55-.75A.94.94,0,0,0,3.61,8.5l-1,.72a1,1,0,0,0-.21,1.33l.09.13-.31.22A.81.81,0,0,0,2,12l1.29,1.77a.81.81,0,0,0,.56.35v.95a.82.82,0,0,0,.79.84h.38v.49a.61.61,0,0,0,.62.61H7.58a.61.61,0,0,0,.62-.61V15.17a21.25,21.25,0,0,0,2.2.14h0a.24.24,0,1,0,0-.47,21.15,21.15,0,0,1-2.21-.15V13.34a24.94,24.94,0,0,1,5.53,0v1.35a21.35,21.35,0,0,1-2.22.15.24.24,0,0,0,0,.47h0a21.45,21.45,0,0,0,2.21-.14v1.27a.61.61,0,0,0,.61.61h1.91a.61.61,0,0,0,.62-.61V16h.38a.82.82,0,0,0,.79-.84v-.62a.24.24,0,1,0-.47,0v.62a.36.36,0,0,1-.32.37h-.38V12.56h.38a.35.35,0,0,1,.32.36v.46A.23.23,0,0,0,17.8,13.62ZM12.63,3.88A.35.35,0,0,1,13.1,4l1.28,1.77a.34.34,0,0,1,0,.48L14,6.47,12.32,4.11Zm-3,1a.15.15,0,0,1,0-.2l1.54-1.12a.15.15,0,0,1,.2,0l2.42,3.33h0l.42.59a.12.12,0,0,1,0,.19L12.64,8.85a.15.15,0,0,1-.2,0Zm.65,1.69L11,7.69a25.07,25.07,0,0,1-4.47,3.25l-.8-1.1A24.79,24.79,0,0,1,10.24,6.59ZM3.88,12.92v.76a.43.43,0,0,1-.18-.15L2.41,11.77a.36.36,0,0,1,0-.49l.31-.22,1.16,1.6A.82.82,0,0,0,3.88,12.92Zm1.17,2.56H4.67a.35.35,0,0,1-.31-.37V12.92a.37.37,0,0,1,.08-.24.29.29,0,0,1,.23-.12h.38v2.92Zm0-3.88v.48H4.6a.78.78,0,0,0-.39.15l-1.43-2a.47.47,0,0,1,.1-.66l1-.73a.49.49,0,0,1,.67.1L6,11H5.67A.62.62,0,0,0,5.05,11.6Zm2.67,4.84a.14.14,0,0,1-.14.14H5.67a.14.14,0,0,1-.14-.14V11.6a.15.15,0,0,1,.14-.15H7.58a.15.15,0,0,1,.14.15Zm8.67,0a.14.14,0,0,1-.14.14H14.34a.15.15,0,0,1-.14-.14V11.6a.15.15,0,0,1,.14-.15h1.91a.15.15,0,0,1,.14.15Z"/></g></g></svg>