<svg xmlns="http://www.w3.org/2000/svg" viewBox="0 0 21.75 25.76"><defs><style>.cls-1{fill:#0d0f1e;}.cls-2{fill:#e2f5f5;}</style></defs><g id="Layer_2" data-name="Layer 2"><g id="Слой_1" data-name="Слой 1"><path class="cls-1" d="M21.7,10A10.72,10.72,0,0,0,18.47,3.1a10.39,10.39,0,0,0-6-3A14.31,14.31,0,0,0,10.87,0,14.13,14.13,0,0,0,9.3.11a10.39,10.39,0,0,0-6,3A10.73,10.73,0,0,0,0,10a10.93,10.93,0,0,0,1.42,6.25,21.62,21.62,0,0,0,3.27,4.45c1.43,1.55,3,2.92,4.59,4.33a3,3,0,0,0,1.23.75,1.42,1.42,0,0,0,.32,0,1.42,1.42,0,0,0,.32,0A2.85,2.85,0,0,0,12.42,25c1.57-1.41,3.17-2.78,4.6-4.33a21.58,21.58,0,0,0,3.26-4.45A10.85,10.85,0,0,0,21.7,10Z"/><path class="cls-2" d="M14.34,8.71,12.47,3.93a.51.51,0,0,0-.65-.28L7,5.52a.5.5,0,0,0-.29.65L8.64,11a.5.5,0,0,0,.65.29l4.77-1.88A.5.5,0,0,0,14.34,8.71Zm-5.2,2L7.31,6,12,4.2l1.82,4.66Z"/><path class="cls-2" d="M9.72,11.71H4.6a.5.5,0,0,0-.5.5v5.13a.5.5,0,0,0,.5.5H9.72a.5.5,0,0,0,.5-.5V12.21A.5.5,0,0,0,9.72,11.71Zm-.06,5.56h-5v-5h5Z"/><path class="cls-2" d="M17.29,11.69l-5-1.32a.51.51,0,0,0-.61.36l-1.31,5a.49.49,0,0,0,.35.61h0l5,1.32a.5.5,0,0,0,.61-.36h0l1.31-5A.49.49,0,0,0,17.29,11.69ZM15.8,17,11,15.76l1.29-4.83,4.83,1.29Z"/><path class="cls-2" d="M12.23,8a.86.86,0,0,0-.2-.26L10.62,6.26l-.16-.18A.75.75,0,0,0,10.32,6a.35.35,0,0,0-.17-.06.45.45,0,0,0-.38.15.35.35,0,0,0-.08.16.75.75,0,0,0,0,.21V8.68c0,.09,0,.15,0,.2a.27.27,0,0,0,0,.12.21.21,0,0,0,.15.14.26.26,0,0,0,.21,0A.21.21,0,0,0,10.22,9a1.22,1.22,0,0,0,0-.33v-.4l1.11-.44.27.29.12.12a.48.48,0,0,0,.11.09l.11,0,.12,0a.31.31,0,0,0,.15-.15A.23.23,0,0,0,12.23,8Zm-2-.21,0-1.28.85,1Z"/><path class="cls-2" d="M7.86,14.56a.71.71,0,0,0,.4-.89.72.72,0,0,0-.12-.21A.74.74,0,0,0,8,13.3a.85.85,0,0,0-.28-.1,1.45,1.45,0,0,0-.36,0H6.38a.39.39,0,0,0-.28.08.37.37,0,0,0-.09.28v2.21a.4.4,0,0,0,.08.28.38.38,0,0,0,.29.09h.89l.4,0A1,1,0,0,0,8,16a.78.78,0,0,0,.34-.28.79.79,0,0,0,.13-.45A.71.71,0,0,0,7.86,14.56Zm-1.25-.93h.47a1.3,1.3,0,0,1,.48.07.28.28,0,0,1,.16.28.41.41,0,0,1,0,.19.3.3,0,0,1-.19.16,1,1,0,0,1-.34,0H6.6Zm1.23,1.61c0,.28-.2.43-.61.43H6.6v-.86h.61a1,1,0,0,1,.47.1A.39.39,0,0,1,7.84,15.24Z"/><path class="cls-2" d="M15.43,13.16a1.15,1.15,0,0,0-.33-.46,1.52,1.52,0,0,0-.57-.28,1.5,1.5,0,0,0-.56,0,1.2,1.2,0,0,0-.51.18,1.38,1.38,0,0,0-.41.39,1.69,1.69,0,0,0-.26.58,1.85,1.85,0,0,0-.07.41,1.58,1.58,0,0,0,0,.38,1.42,1.42,0,0,0,.11.35,1.13,1.13,0,0,0,.21.31,1.05,1.05,0,0,0,.3.22,2,2,0,0,0,.4.16,1.41,1.41,0,0,0,.54,0,1.23,1.23,0,0,0,.43-.16A1,1,0,0,0,15,15a.76.76,0,0,0,.15-.28.24.24,0,0,0,0-.2.21.21,0,0,0-.16-.11.19.19,0,0,0-.19,0,1.07,1.07,0,0,0-.14.16.74.74,0,0,1-.35.28.69.69,0,0,1-.45,0,.82.82,0,0,1-.36-.18.66.66,0,0,1-.17-.39,1.58,1.58,0,0,1,0-.57,1.25,1.25,0,0,1,.41-.73.7.7,0,0,1,.64-.11.66.66,0,0,1,.34.2.89.89,0,0,1,.18.38.83.83,0,0,0,.08.22.21.21,0,0,0,.15.09.22.22,0,0,0,.19,0,.21.21,0,0,0,.11-.15A.67.67,0,0,0,15.43,13.16Z"/></g></g></svg>