<svg xmlns="http://www.w3.org/2000/svg" viewBox="0 0 72.71 35">
    <defs>
        <style>.cls-1{fill:#fff;fill-opacity:0;}.cls-2{fill:#0c0e0f;}.cls-3{fill:#f9e740;}.cls-3,.cls-4,.cls-5{stroke:#0c0e0f;stroke-miterlimit:2.61;stroke-width:0.04px;}.cls-4{fill:#3165aa;}.cls-5{fill:#e7e8e9;}</style>
    </defs>
    <g id="Layer_2" data-name="Layer 2" transform="translate(0, -17)">
        <g id="Слой_1" data-name="Слой 1">
            <path class="cls-1" d="M0,0H72.71V72.71H0Z"/>
            <path class="cls-2" d="M27.43,39.52h2.46l.55-2.43.82,2.43H33.9L32.76,36.7l2.82-3.22H32.49l-1.73,2.39.59-2.39H28.89Z"/>
            <path class="cls-2" d="M33.63,37.67h2.91L37,36H34.08Zm6.42-2.53h1c.32,0,.5.14.5.44a.76.76,0,0,1-.77.83H39.73Zm-3.51,4.38H39l.5-2.09,1.14,2.09h2.83L41.78,37h.45c1,0,1.78-.68,1.78-2.24,0-.83-.23-1.32-1.28-1.32H38.09l-1.55,6Z"/>
            <path class="cls-2" d="M43.1,39.52h2.68l.5-.87h2v.87h2.41v-6H46.47l-3.37,6Zm5.14-2.33H47L48.24,35Zm10.11-3.71H55.94l-1,4c-.14.44-.32.68-.73.68s-.5-.1-.5-.44A2.34,2.34,0,0,1,53.8,37l.91-3.56H52.25l-1,3.71a4.69,4.69,0,0,0-.23,1.07c0,1.36,1.64,1.46,2.55,1.46,2,0,3.19-.24,3.56-1.8l1.18-4.44Zm.32,6h2.46l.95-4h1.6l.5-2H58.53l-.5,2h1.6l-1,4Zm3.23,0h2.69l.5-.87h2v.87h2.46v-6H65.27l-3.37,6Zm5.15-2.33H65.82L67.05,35Z"/>
            <path class="cls-3" d="M4.94,33h8.6l-1.77,6.73H3.21Z"/>
            <path class="cls-4" d="M15.05,33h5.51l-1.64,6.73H13.41Z"/>
            <path class="cls-5" d="M22.1,33h5.51L26,39.72H20.47Z"/>
        </g>
    </g>
</svg>