<svg xmlns="http://www.w3.org/2000/svg" viewBox="0 0 21.75 25.76"><defs><style>.cls-1{fill:#0d0f1e;}.cls-2{fill:#e2f5f5;}</style></defs><g id="Layer_2" data-name="Layer 2"><g id="Слой_1" data-name="Слой 1"><path class="cls-1" d="M21.7,10A10.72,10.72,0,0,0,18.47,3.1a10.39,10.39,0,0,0-6-3A14.31,14.31,0,0,0,10.87,0,14.13,14.13,0,0,0,9.3.11a10.39,10.39,0,0,0-6,3A10.73,10.73,0,0,0,0,10a10.93,10.93,0,0,0,1.42,6.25,21.62,21.62,0,0,0,3.27,4.45c1.43,1.55,3,2.92,4.59,4.33a3,3,0,0,0,1.23.75,1.42,1.42,0,0,0,.32,0,1.42,1.42,0,0,0,.32,0A2.85,2.85,0,0,0,12.42,25c1.57-1.41,3.17-2.78,4.6-4.33a21.58,21.58,0,0,0,3.26-4.45A10.85,10.85,0,0,0,21.7,10Z"/><path class="cls-2" d="M18,11a6.94,6.94,0,1,0-6.93,7.44h.5A7,7,0,0,0,18,11ZM11.52,17.7a6.19,6.19,0,0,1-5.11-2.14A4.06,4.06,0,0,1,8,15.4a4,4,0,0,1,1.39.4,3.32,3.32,0,0,0,1.48.38h.29a3.2,3.2,0,0,0,1.62-.65A2.51,2.51,0,0,1,13.85,15a3.26,3.26,0,0,1,2.05.38A6.23,6.23,0,0,1,11.52,17.7Zm4.83-2.95a4.06,4.06,0,0,0-2.64-.5,3.39,3.39,0,0,0-1.41.63,2.4,2.4,0,0,1-1.25.52,2.46,2.46,0,0,1-1.38-.31A5,5,0,0,0,8,14.62a5.2,5.2,0,0,0-2.11.29,6.16,6.16,0,0,1,4.72-9.53l.44,0a6.17,6.17,0,0,1,5.27,9.39Z"/><path class="cls-2" d="M7.22,11.92H13.4v.77H7.22Z"/><path class="cls-2" d="M16.1,10.76H13.67l-.68-2a.39.39,0,0,0-.37-.26H9.54V7.68a.39.39,0,0,0-.39-.39H8a.38.38,0,0,0-.38.39v.77H7.22a.38.38,0,0,0-.38.39v1.92H6.06a.39.39,0,0,0-.38.39v2.32a.38.38,0,0,0,.38.38h8.49a.4.4,0,0,0,.33-.17l1.54-2.31a.39.39,0,0,0-.32-.61ZM8.38,8.06h.39v.39H8.38ZM9.92,9.22v.39H7.61V9.22ZM7.61,10.38h2.7A.39.39,0,0,0,10.7,10V9.22h1.65l.51,1.54H7.61Zm6.74,2.7H6.45V11.54h8.93Z"/></g></g></svg>