<svg xmlns="http://www.w3.org/2000/svg" viewBox="0 0 21.71 18.45"><defs><style>.cls-1{fill:#ec008c;}.cls-2{fill:#f68b1e;}.cls-3{fill:#fdb813;}</style></defs><g id="Layer_2" data-name="Layer 2"><g id="Слой_1" data-name="Слой 1"><path class="cls-1" d="M15,9.19s1-.12,1-.63a2.67,2.67,0,0,0-.32-1L11.63.45A.86.86,0,0,0,10.8,0,.82.82,0,0,0,10,.45L5.88,7.53a2.51,2.51,0,0,0-.32,1.09c.19.57,1,.64,1,.64L15,9.19Z"/><path class="cls-2" d="M1.09,18.45h8.3s1-.13,1-.64a2.67,2.67,0,0,0-.32-1L6,9.7a.86.86,0,0,0-.83-.44.82.82,0,0,0-.77.44l-4.08,7A2.33,2.33,0,0,0,0,17.81c.19.58,1.08.64,1.08.64"/><path class="cls-3" d="M20.69,18.45s1-.13,1-.64a2.73,2.73,0,0,0-.31-1L17.31,9.7a.86.86,0,0,0-.83-.44.82.82,0,0,0-.77.44l-4.08,7a2.33,2.33,0,0,0-.32,1.08c.19.58,1,.64,1,.64Z"/></g></g></svg>