<svg xmlns="http://www.w3.org/2000/svg" viewBox="0 0 21.75 25.76"><defs><style>.cls-1{fill:#0d0f1e;}.cls-2{fill:#e2f5f5;}</style></defs><g id="Layer_2" data-name="Layer 2"><g id="Слой_1" data-name="Слой 1"><path class="cls-1" d="M21.7,10A10.72,10.72,0,0,0,18.47,3.1a10.39,10.39,0,0,0-6-3A14.31,14.31,0,0,0,10.87,0,14.13,14.13,0,0,0,9.3.11a10.39,10.39,0,0,0-6,3A10.73,10.73,0,0,0,0,10a10.93,10.93,0,0,0,1.42,6.25,21.62,21.62,0,0,0,3.27,4.45c1.43,1.55,3,2.92,4.59,4.33a3,3,0,0,0,1.23.75,1.42,1.42,0,0,0,.32,0,1.42,1.42,0,0,0,.32,0A2.85,2.85,0,0,0,12.42,25c1.57-1.41,3.17-2.78,4.6-4.33a21.58,21.58,0,0,0,3.26-4.45A10.85,10.85,0,0,0,21.7,10Z"/><path class="cls-2" d="M14.17,10.43l.8,0h0a1.89,1.89,0,0,0,1.4-.82L17,8.64a3.71,3.71,0,0,0,.6-2.73.84.84,0,0,0-.28-.49.8.8,0,0,0-.51-.21,3.73,3.73,0,0,0-2.65.92l-.84.73a1.89,1.89,0,0,0-.64,1.49h0l.05.8a1.14,1.14,0,0,1-.32.84L5.84,16.74a1,1,0,0,0-.26.71,1.16,1.16,0,0,0,.37.79,1.12,1.12,0,0,0,.75.28h.08a1,1,0,0,0,.68-.34l5.91-7.34A1.14,1.14,0,0,1,14.17,10.43Zm-1.11.16L7.14,17.92a.54.54,0,0,1-.39.19.72.72,0,0,1-.53-.17.71.71,0,0,1-.23-.5A.52.52,0,0,1,6.13,17l6.58-6.76a1.5,1.5,0,0,0,.42-1.14l0-.8a1.44,1.44,0,0,1,.5-1.16l.84-.74a3.33,3.33,0,0,1,2.36-.82A.46.46,0,0,1,17.2,6a3.35,3.35,0,0,1-.54,2.44L16,9.34a1.46,1.46,0,0,1-1.09.63l-.8.06A1.5,1.5,0,0,0,13.06,10.59Z"/><path class="cls-2" d="M17.27,16.69l-4.4-4a.21.21,0,0,0-.28.3L17,17a.61.61,0,0,1,.17.4.74.74,0,0,1-.21.52.69.69,0,0,1-.51.2.53.53,0,0,1-.4-.16l-3.93-4.32a.22.22,0,0,0-.29,0,.21.21,0,0,0,0,.29l3.93,4.31a.94.94,0,0,0,.69.3h0a1.15,1.15,0,0,0,.79-.32,1.11,1.11,0,0,0,.32-.81A.94.94,0,0,0,17.27,16.69Z"/><path class="cls-2" d="M6.55,10.39a1.86,1.86,0,0,0,1.23.5h.8a1.15,1.15,0,0,1,.82.36l.35.39a.23.23,0,0,0,.15.07.2.2,0,0,0,.14-.06.19.19,0,0,0,0-.28L9.7,11a1.53,1.53,0,0,0-1.12-.49H7.79a1.46,1.46,0,0,1-1-.38L4.52,7.35a.07.07,0,0,1,0-.09.06.06,0,0,1,.05,0s0,0,0,0l2.11,2.1a.53.53,0,0,0,.75,0l.25-.24h0l.44-.44h0l.25-.25a.56.56,0,0,0,0-.76L6.31,5.57a.07.07,0,1,1,.1-.1L9.16,7.78a1.51,1.51,0,0,1,.38,1v.8A1.55,1.55,0,0,0,10,10.65l.38.34a.2.2,0,1,0,.27-.3l-.37-.34A1.11,1.11,0,0,1,10,9.53v-.8h0a1.89,1.89,0,0,0-.49-1.23h0L6.67,5.16a.49.49,0,0,0-.65,0,.5.5,0,0,0,0,.68L8.13,8a.13.13,0,0,1,0,.18L8,8.25,5.68,5.9a.21.21,0,0,0-.29.29L7.74,8.53l-.15.15L5.24,6.34A.21.21,0,0,0,5,6.63L7.3,9l-.1.11a.14.14,0,0,1-.19,0L4.91,7a.48.48,0,0,0-.34-.14.48.48,0,0,0-.36.78l2.32,2.76Z"/></g></g></svg>