<svg xmlns="http://www.w3.org/2000/svg" viewBox="0 0 33.68 11.68"><defs><style>.cls-1{fill:#ed1c24;}.cls-2{fill:#fefefe;}.cls-3{fill:#00aeea;}</style></defs><g id="Layer_2" data-name="Layer 2"><g id="Слой_1" data-name="Слой 1"><path class="cls-1" d="M2.78,11.68H32.11L33.68,0H1.22L.05,8.64a2.46,2.46,0,0,0,2.73,3"/><path class="cls-2" d="M12.47,3.68s-.06.42-.07.47H11c-.48,0-.4-.38-.4-.38l.06-.35h1.45c.39,0,.36.26.36.26M11.91,7.9H10.7a.53.53,0,0,1-.57-.52s.4-2.86.4-2.86l1.45,0a.39.39,0,0,1,.33.48c0,.13-.4,2.83-.4,2.88m1.95-3.38h5.58c.31,0,1.27.1,1.15,1s-.33,2.35-.33,2.35H19.08s-.54-.06-.48-.5.19-1.49.23-1.78-.32-.28-.32-.28h-.45l-.34,2.55H16.6S16,7.94,16,7.43s.18-1.39.21-1.72a.29.29,0,0,0-.3-.36H15.5l-.33,2.55H13.38l.48-3.37Zm-6,2.07h0a2.52,2.52,0,0,0,.88-.24,1.06,1.06,0,0,0,.38-.95c0-.3-.07-1-1.72-1h-3L3.92,7.89H5.77S6,6.37,6,6.35s.82,1.2.82,1.2a1,1,0,0,0,.87.35H9.14L7.83,6.59m-.49-.78H6.1l.1-.67s.86,0,1,.1a.32.32,0,0,1,.15.28,2.8,2.8,0,0,1,0,.29M24.07,3.67S24,4.1,24,4.14H22.6c-.48,0-.4-.38-.4-.38l.06-.35h1.45c.4,0,.36.26.36.26m-.56,4.22H22.3a.53.53,0,0,1-.57-.52s.4-2.86.4-2.86l1.45,0a.39.39,0,0,1,.33.48c0,.14-.4,2.83-.4,2.88m2.77-5.1a3.88,3.88,0,0,1,1.53-.21c.6.1.9.57.6,1.62A8.29,8.29,0,0,1,26,8s1.81-3.9.3-5.25"/><path class="cls-3" d="M28.65,3.23A3.39,3.39,0,0,1,30,3.12a.63.63,0,0,1,.46.87A5.86,5.86,0,0,1,27,7.53S29.79,4,28.65,3.23"/></g></g></svg>