<svg xmlns="http://www.w3.org/2000/svg" viewBox="0 0 21.75 25.76"><defs><style>.cls-1{fill:#0d0f1e;}.cls-2{fill:#e2f5f5;}</style></defs><g id="Layer_2" data-name="Layer 2"><g id="Слой_1" data-name="Слой 1"><path class="cls-1" d="M21.7,10A10.72,10.72,0,0,0,18.47,3.1a10.39,10.39,0,0,0-6-3A14.31,14.31,0,0,0,10.87,0,14.13,14.13,0,0,0,9.3.11a10.39,10.39,0,0,0-6,3A10.73,10.73,0,0,0,0,10a10.93,10.93,0,0,0,1.42,6.25,21.62,21.62,0,0,0,3.27,4.45c1.43,1.55,3,2.92,4.59,4.33a3,3,0,0,0,1.23.75,1.42,1.42,0,0,0,.32,0,1.42,1.42,0,0,0,.32,0A2.85,2.85,0,0,0,12.42,25c1.57-1.41,3.17-2.78,4.6-4.33a21.58,21.58,0,0,0,3.26-4.45A10.85,10.85,0,0,0,21.7,10Z"/><path class="cls-2" d="M18.93,10.08,15.75,6.89a.32.32,0,0,0-.23-.09H11.64l-.45-.45V5.53h2.87a.31.31,0,0,0,.28-.18.29.29,0,0,0,0-.33L13.5,3.93l.81-1.08a.29.29,0,0,0,0-.33.31.31,0,0,0-.28-.18H10.87a.32.32,0,0,0-.32.32V6.35l-.45.45H6.22A.31.31,0,0,0,6,6.89L2.81,10.08a.32.32,0,0,0-.07.35.34.34,0,0,0,.3.19h.51v6.05a.31.31,0,0,0,.31.32H9.92a.32.32,0,0,0,.32-.32V14.76h1.27v1.91a.32.32,0,0,0,.32.32h6a.32.32,0,0,0,.32-.32V10.62h.51a.32.32,0,0,0,.29-.19A.31.31,0,0,0,18.93,10.08ZM11.19,3h2.23l-.57.76a.3.3,0,0,0,0,.38l.57.77H11.19Zm4.2,4.46L17.94,10H14.83L12.28,7.44Zm-4.52-.51L13.93,10h-1L11.1,8.17a.31.31,0,0,0-.45,0L8.83,10h-1Zm-4.52.51H9.47L6.92,10H3.81Zm11.21,8.92H12.15V14.45a.32.32,0,0,0-.32-.32H9.92a.32.32,0,0,0-.32.32v1.91H4.18V10.62H9a.32.32,0,0,0,.23-.09l1.68-1.69,1.69,1.69a.31.31,0,0,0,.22.09h4.78Z"/><path class="cls-2" d="M5.14,11.58H6.41v1.27H5.14Z"/><path class="cls-2" d="M7.69,11.58H9v1.27H7.69Z"/><path class="cls-2" d="M5.14,14.13H6.41V15.4H5.14Z"/><path class="cls-2" d="M7.69,14.13H9V15.4H7.69Z"/><path class="cls-2" d="M12.78,11.58h1.28v1.27H12.78Z"/><path class="cls-2" d="M15.33,11.58h1.28v1.27H15.33Z"/><path class="cls-2" d="M12.78,14.13h1.28V15.4H12.78Z"/><path class="cls-2" d="M15.33,14.13h1.28V15.4H15.33Z"/><path class="cls-2" d="M10.87,10.3a1.28,1.28,0,1,0,1.28,1.28A1.28,1.28,0,0,0,10.87,10.3Zm0,1.92a.64.64,0,0,1,0-1.28.64.64,0,0,1,0,1.28Z"/></g></g></svg>