<svg xmlns="http://www.w3.org/2000/svg" viewBox="0 0 23.52 29.05"><defs><style>.cls-1{fill:#243285;}.cls-2{fill:#fff;}.cls-3{fill:#e60004;}.cls-4{fill:#ffed00;}</style></defs><g id="Layer_2" data-name="Layer 2"><g id="Слой_1" data-name="Слой 1"><path class="cls-1" d="M22.75,10.32c1.2,0,.8-1.66.19-2.08-.81-.12-1.58-.51-2.14,0,0,1.72.29,1.86,1.95,2M5,8.3c1-.05,1.18-.58,1.34-1.67a2,2,0,0,0-2.68,0C3.19,8.13,3.2,8.12,5,8.3M19.17,5.21c.4,0,2-.84,2-1.38a2,2,0,0,0-1.45-1.21c-1.5.82-3.16,1.43-.54,2.59M8.34,4.07A4,4,0,0,0,10,3.23a2.83,2.83,0,0,0,0-.29C8.79,1.28,8,.78,6.66,2.26c.06.57,1,1.38,1.68,1.81m5.94-1.29c1.16,0,.89-1.45.92-2.28A1.42,1.42,0,0,0,13.14.39c-.21,1.82-.74,2.26,1.14,2.39M5.71,29.05A2,2,0,0,1,4,27c.18-.81.91-1.39.91-2.12L3,11.09C2.39,10,.72,10.93.05,10c-.66-2.87,5.14.66,6.6-.8,2.35-8,12.56-6.88,13.06,1.54.74,1.05,3,0,3.64,1.12-.13.92-.63,7.12-1.57,7.48l-14.71,0c-1,.36.19,4.48.35,5.47.12.43.16.65.69.88H18.74a7.21,7.21,0,0,1,1.44-.51,1.93,1.93,0,1,1-1,3.45c-.3-.29-.57-.65-.76-.79-.81-.36-9.9-.33-10.51,0-.73.77-1.1,1.22-2.19,1.22"/><path class="cls-2" d="M5.71,28.12c-2-.8.32-3.29,1.19-1.27a1.06,1.06,0,0,1-1.19,1.27"/><path class="cls-2" d="M20.14,28.12c-1.76-.7-.15-3.05,1.15-1.46.31.9-.25,1.46-1.15,1.46"/><path class="cls-3" d="M6.61,18c-1.19-.59-1.31-5.61-1.31-6.74A4.11,4.11,0,0,1,5.6,11c4.78.2,9.78,1,14.64,1.54a.74.74,0,0,1,.4.37c0,1-.23,4.57-1.15,5.12Z"/><path class="cls-4" d="M17.31,10.6C15.94,10.46,9,10,8.46,9.28c.26-4.2,5.11-4.92,8.05-2.72.53.59,2.74,3.89.8,4"/></g></g></svg>