<svg xmlns="http://www.w3.org/2000/svg" viewBox="0 0 21.75 25.76"><defs><style>.cls-1{fill:#0d0f1e;}.cls-2{fill:#e2f5f5;}</style></defs><g id="Layer_2" data-name="Layer 2"><g id="Слой_1" data-name="Слой 1"><path class="cls-1" d="M21.7,10A10.72,10.72,0,0,0,18.47,3.1a10.39,10.39,0,0,0-6-3A14.31,14.31,0,0,0,10.87,0,14.13,14.13,0,0,0,9.3.11a10.39,10.39,0,0,0-6,3A10.73,10.73,0,0,0,0,10a10.93,10.93,0,0,0,1.42,6.25,21.62,21.62,0,0,0,3.27,4.45c1.43,1.55,3,2.92,4.59,4.33a3,3,0,0,0,1.23.75,1.42,1.42,0,0,0,.32,0,1.42,1.42,0,0,0,.32,0A2.85,2.85,0,0,0,12.42,25c1.57-1.41,3.17-2.78,4.6-4.33a21.58,21.58,0,0,0,3.26-4.45A10.85,10.85,0,0,0,21.7,10Z"/><path class="cls-2" d="M18,12.92A2.41,2.41,0,0,0,16,10.45a2.05,2.05,0,0,0,.43-1,.22.22,0,0,0-.19-.25.22.22,0,0,0-.25.18A1.61,1.61,0,0,1,15,10.69a.4.4,0,0,0-.25.3A1.35,1.35,0,0,1,14,12a1.3,1.3,0,0,1-1,0,1.33,1.33,0,0,1-.57-.43v-1l1-1a.23.23,0,0,0,0-.31.22.22,0,0,0-.32,0l-.65.65V8.51a.22.22,0,1,0-.44,0v1l-.65-.65a.22.22,0,0,0-.31.31l1,1v1.38a1.33,1.33,0,0,1-.57.43,1.3,1.3,0,0,1-1,0,1.21,1.21,0,0,1-.5-.48,12.68,12.68,0,0,0-.66-3.77l.18-.08a.48.48,0,0,0,.29-.48.49.49,0,0,1,0-.12,1,1,0,0,1,.74-.94.46.46,0,0,0,.35-.46,1.42,1.42,0,0,1,2.84,0A.47.47,0,0,0,14,6.1a1,1,0,0,1,.74,1.06.45.45,0,0,0,.29.48,1.64,1.64,0,0,1,.91.9.23.23,0,0,0,.29.13.22.22,0,0,0,.12-.29,2.11,2.11,0,0,0-1.16-1.15l0,0a1.41,1.41,0,0,0-1.06-1.54s0,0,0,0a1.86,1.86,0,0,0-3.72,0s0,0,0,0A1.4,1.4,0,0,0,9.25,7a1,1,0,0,0,0,.17s-.14.07-.17.09C9,7.14,9,7,8.92,6.82c-1-2.51-1.9-3-2.53-3-1.09,0-1.93,1.55-2.45,2.85a.22.22,0,0,0,.42.16c.64-1.63,1.38-2.57,2-2.57S7.85,5.22,8.51,7a14.41,14.41,0,0,1,.94,4.34,3.3,3.3,0,0,1-2.83,3.43V13h0v-.84l.92-.93a.23.23,0,0,0,0-.31.24.24,0,0,0-.32,0l-.6.61v-.92a.22.22,0,0,0-.23-.22.22.22,0,0,0-.22.22V12h0v.41l-.61-.61a.21.21,0,0,0-.31,0,.23.23,0,0,0,0,.31l.92.92v1.7a3.3,3.3,0,0,1-2.83-3.43A13.57,13.57,0,0,1,4,7.74a.22.22,0,0,0-.14-.28.22.22,0,0,0-.28.14,14,14,0,0,0-.71,3.72A3.75,3.75,0,0,0,6.17,15.2v3.21H5.66a.22.22,0,1,0,0,.44H16.25a.22.22,0,0,0,0-.44H16v-3A2.41,2.41,0,0,0,18,12.92Zm-6,5.49H6.62V15.2a3.66,3.66,0,0,0,3.2-3.09,1.56,1.56,0,0,0,.38.25,1.68,1.68,0,0,0,1.37,0,1.75,1.75,0,0,0,.41-.22Zm1.22,0h-.78V12.17a2,2,0,0,0,.41.22,1.82,1.82,0,0,0,.67.13,1.85,1.85,0,0,1,0,.4,2.41,2.41,0,0,0,2,2.47v3Zm2.54-5.65a.22.22,0,0,0-.22.22V14.2h0v.74a2,2,0,0,1-1.56-2,2.44,2.44,0,0,1,0-.48,2,2,0,0,0,1.12-1.34,2.74,2.74,0,0,0,.42-.21,1.89,1.89,0,0,1,2,2,2,2,0,0,1-1.56,2v-.65l.69-.7a.22.22,0,1,0-.31-.31l-.38.39V13A.22.22,0,0,0,15.74,12.76Z"/></g></g></svg>