<svg xmlns="http://www.w3.org/2000/svg" viewBox="0 0 21.75 25.76"><defs><style>.cls-1{fill:#0d0f1e;}.cls-2{fill:#e2f5f5;}</style></defs><g id="Layer_2" data-name="Layer 2"><g id="Слой_1" data-name="Слой 1"><path class="cls-1" d="M21.7,10A10.72,10.72,0,0,0,18.47,3.1a10.39,10.39,0,0,0-6-3A14.31,14.31,0,0,0,10.87,0,14.13,14.13,0,0,0,9.3.11a10.39,10.39,0,0,0-6,3A10.73,10.73,0,0,0,0,10a10.93,10.93,0,0,0,1.42,6.25,21.62,21.62,0,0,0,3.27,4.45c1.43,1.55,3,2.92,4.59,4.33a3,3,0,0,0,1.23.75,1.42,1.42,0,0,0,.32,0,1.42,1.42,0,0,0,.32,0A2.85,2.85,0,0,0,12.42,25c1.57-1.41,3.17-2.78,4.6-4.33a21.58,21.58,0,0,0,3.26-4.45A10.85,10.85,0,0,0,21.7,10Z"/><path class="cls-2" d="M11.41,16.42l.72.19a1.72,1.72,0,0,0,2-.52,1.68,1.68,0,0,0-.6-2.55,2.88,2.88,0,0,1-.57-.32,1.32,1.32,0,0,1-.42-1,1.63,1.63,0,0,0-1.12-1.48A1.67,1.67,0,0,0,9.23,12a.78.78,0,0,0,0,.21,1.37,1.37,0,0,1-1,1.38A1.64,1.64,0,0,0,7.56,16a2.91,2.91,0,0,0,.8.62c.17.11.32.19.33.41a.4.4,0,0,1-.56.36,2.48,2.48,0,0,1-.27-4.59l.19-.08a.51.51,0,0,0,.34-.49,2.45,2.45,0,0,1,1-1.94A2.36,2.36,0,0,1,11.85,10a2.34,2.34,0,0,1,1.48,2,.83.83,0,0,0,.56.8,2.41,2.41,0,0,1,1.39,2.47,2.48,2.48,0,0,1-3.36,2.06,2.81,2.81,0,0,0-2,0,.4.4,0,0,1-.58-.24c-.07-.22.05-.41.34-.51a3.21,3.21,0,0,1,.53-.15l.5-.07A5.35,5.35,0,0,1,11.41,16.42Z"/><path class="cls-2" d="M7.7,10.83a1.49,1.49,0,0,1-2.29,1.45,2,2,0,0,1-1-2A1.46,1.46,0,0,1,6.68,9.15,2.1,2.1,0,0,1,7.7,10.83ZM6.9,11a1.33,1.33,0,0,0-.79-1.2.64.64,0,0,0-.94.48,1.33,1.33,0,0,0,.62,1.34A.68.68,0,0,0,6.9,11Z"/><path class="cls-2" d="M10.5,7.66a1.91,1.91,0,0,1-.42,1.23A1.43,1.43,0,0,1,8,9,2.16,2.16,0,0,1,7.42,6.6,1.48,1.48,0,0,1,10,6.27,2.19,2.19,0,0,1,10.5,7.66ZM8.06,7.42a1.37,1.37,0,0,0,.44,1,.66.66,0,0,0,1.1-.27,1.24,1.24,0,0,0,0-1.08.89.89,0,0,0-.93-.59A.88.88,0,0,0,8.06,7.42Z"/><path class="cls-2" d="M17.39,10.52a2.09,2.09,0,0,1-.95,1.7A1.48,1.48,0,0,1,14,11a2.16,2.16,0,0,1,1.37-2A1.48,1.48,0,0,1,17.39,10.52Zm-.8-.06a.67.67,0,0,0-.94-.72,1.34,1.34,0,0,0-.79,1.42.64.64,0,0,0,.92.51A1.34,1.34,0,0,0,16.59,10.46Z"/><path class="cls-2" d="M11.59,6.27a1.47,1.47,0,0,1,2.55.33A2.13,2.13,0,0,1,13.56,9a1.43,1.43,0,0,1-2.08-.15,1.9,1.9,0,0,1-.41-1.23A2.18,2.18,0,0,1,11.59,6.27Zm1.35.22a.91.91,0,0,0-.93.59,1.31,1.31,0,0,0,0,1.08.66.66,0,0,0,1.1.27,1.38,1.38,0,0,0,.45-1A.89.89,0,0,0,12.94,6.49Z"/></g></g></svg>